<?xml version="1.0" encoding="UTF-8"?>
<svg id="Layer_1" data-name="Layer 1" xmlns="http://www.w3.org/2000/svg" viewBox="0 0 1625.78 113.77">
  <defs>
    <style>
      .cls-1 {
        fill: none;
        stroke: #dc6e50;
        stroke-linecap: round;
        stroke-linejoin: round;
        stroke-width: 1.5px;
      }
    </style>
  </defs>
  <path class="cls-1" d="M674.35,53.74c2.41-.91,4.81-1.85,7.2-2.82"/>
  <path class="cls-1" d="M662.14,58.51c2.36-.66,4.65-1.55,6.77-2.78"/>
  <path class="cls-1" d="M650.64,61.64c2.13-.65,4.26-1.3,6.39-1.96"/>
  <path class="cls-1" d="M639.2,65.02c2.11-.62,4.23-1.23,6.34-1.84"/>
  <path class="cls-1" d="M627.36,68.66c2.27-.7,4.54-1.42,6.8-2.16"/>
  <path class="cls-1" d="M614.61,72.24c2.38-.63,4.77-1.26,7.15-1.88"/>
  <path class="cls-1" d="M602.91,75.52c2.18-.64,4.36-1.29,6.54-1.93"/>
  <path class="cls-1" d="M590.44,79.04c2.49-.56,4.95-1.24,7.37-2.05"/>
  <path class="cls-1" d="M577.33,80.79c2.49-.24,4.98-.46,7.47-.65"/>
  <path class="cls-1" d="M565.05,82.27c2.29-.31,4.58-.62,6.87-.91"/>
  <path class="cls-1" d="M553.4,83.96c2.29-.35,4.57-.69,6.86-1.04"/>
  <path class="cls-1" d="M540.34,86.04c2.52-.4,5.05-.81,7.56-1.24"/>
  <path class="cls-1" d="M527.8,87.98c2.35-.35,4.7-.72,7.05-1.1"/>
  <path class="cls-1" d="M515.92,89.72c2.25-.31,4.5-.65,6.74-1.01"/>
  <path class="cls-1" d="M503.99,91.04c2.18-.19,4.36-.41,6.54-.64"/>
  <path class="cls-1" d="M491.61,91.92c2.38-.13,4.77-.28,7.15-.45"/>
  <path class="cls-1" d="M479.85,91.97c2.19.04,4.38.1,6.56.2"/>
  <path class="cls-1" d="M467.07,92.22c2.49-.07,4.98-.17,7.46-.3"/>
  <path class="cls-1" d="M454.92,92.43c2.25,0,4.49-.04,6.74-.1"/>
  <path class="cls-1" d="M442.76,92.35c2.26.05,4.53.07,6.79.06"/>
  <path class="cls-1" d="M430.85,91.69c2.16.18,4.33.35,6.5.5"/>
  <path class="cls-1" d="M419.45,90.63c2.07.21,4.14.41,6.21.6"/>
  <path class="cls-1" d="M406.9,89.18c2.35.3,4.71.58,7.06.86"/>
  <path class="cls-1" d="M394.35,87.62c2.47.32,4.94.62,7.42.89"/>
  <path class="cls-1" d="M382.48,86c2.16.33,4.33.62,6.51.88"/>
  <path class="cls-1" d="M370.71,83.97c2.2.41,4.41.81,6.62,1.18"/>
  <path class="cls-1" d="M359.01,82.04c2.16.35,4.33.66,6.51.93"/>
  <path class="cls-1" d="M347.47,79.6c2.13.53,4.26,1.04,6.39,1.53"/>
  <path class="cls-1" d="M335.94,76.29c2.14.68,4.29,1.34,6.44,2"/>
  <path class="cls-1" d="M323.2,72.09c2.31.79,4.63,1.57,6.95,2.35"/>
  <path class="cls-1" d="M311.65,68.09c1.95.69,3.91,1.37,5.87,2.05"/>
  <path class="cls-1" d="M299.27,63.68c2.17.78,4.35,1.56,6.52,2.33"/>
  <path class="cls-1" d="M286.86,59.2c2.18.79,4.36,1.59,6.54,2.37"/>
  <path class="cls-1" d="M274.53,54.67c2.37.88,4.73,1.75,7.1,2.62"/>
  <path class="cls-1" d="M263.6,50.59c1.92.72,3.84,1.44,5.76,2.16"/>
  <path class="cls-1" d="M251.47,46c2.12.8,4.25,1.61,6.37,2.41"/>
  <path class="cls-1" d="M238.78,41.23c2.53.94,5.06,1.89,7.59,2.84"/>
  <path class="cls-1" d="M226.09,36.62c2.54.9,5.08,1.81,7.62,2.74"/>
  <path class="cls-1" d="M214.23,32.61c2.26.73,4.51,1.48,6.76,2.24"/>
  <path class="cls-1" d="M201.47,28.63c2.4.71,4.8,1.46,7.18,2.23"/>
  <path class="cls-1" d="M189.41,25.07c2.29.65,4.56,1.33,6.83,2.05"/>
  <path class="cls-1" d="M176.35,21.69c2.49.58,4.98,1.2,7.45,1.86"/>
  <path class="cls-1" d="M164.1,19.09c2.22.42,4.43.87,6.64,1.36"/>
  <path class="cls-1" d="M151.27,17.07c2.5.33,5,.69,7.49,1.1"/>
  <path class="cls-1" d="M138.62,15.71c2.55.21,5.09.47,7.63.75"/>
  <path class="cls-1" d="M126.27,14.9c2.21.1,4.42.22,6.62.39"/>
  <path class="cls-1" d="M112.95,14.56c2.46,0,4.91.06,7.36.16"/>
  <path class="cls-1" d="M99.75,14.96c2.62-.15,5.24-.27,7.86-.35"/>
  <path class="cls-1" d="M86.42,16.08c2.69-.29,5.39-.55,8.09-.76"/>
  <path class="cls-1" d="M73.89,17.56c2.38-.33,4.76-.61,7.15-.84"/>
  <path class="cls-1" d="M60.7,19.81c2.65-.54,5.3-1.03,7.96-1.47"/>
  <path class="cls-1" d="M48.22,23.26c2.44-.63,4.87-1.36,7.21-2.32"/>
  <path class="cls-1" d="M36.09,25.94c2.47-.53,4.94-1.02,7.41-1.56"/>
  <path class="cls-1" d="M24.9,28.91c2.13-.74,4.3-1.36,6.48-1.9"/>
  <path class="cls-1" d="M14.11,32.59c1.92-.66,3.88-1.21,5.86-1.66"/>
  <path class="cls-1" d="M2.74,37.12c1.45-1.29,3.73-2.21,6.07-2.92"/>
  <path class="cls-1" d="M1436.12,30.1c2.27-1.17,4.52-2.35,6.78-3.55"/>
  <path class="cls-1" d="M1425.52,35.45c2.02-1,4.03-2.01,6.03-3.03"/>
  <path class="cls-1" d="M1415.08,40.53c1.82-.9,3.65-1.78,5.48-2.65"/>
  <path class="cls-1" d="M1403.81,45.77c1.98-.86,3.96-1.72,5.94-2.59"/>
  <path class="cls-1" d="M1392.56,50.74c1.97-.88,3.94-1.77,5.9-2.67"/>
  <path class="cls-1" d="M1381.32,55.64c1.98-.84,3.95-1.7,5.92-2.56"/>
  <path class="cls-1" d="M1368.9,60.95c2.37-.99,4.72-2.01,7.07-3.05"/>
  <path class="cls-1" d="M1356.97,65.94c2.23-.91,4.44-1.84,6.64-2.81"/>
  <path class="cls-1" d="M1344.33,70.9c2.41-.91,4.81-1.85,7.2-2.82"/>
  <path class="cls-1" d="M1332.12,75.67c2.36-.66,4.65-1.55,6.77-2.78"/>
  <path class="cls-1" d="M1320.62,78.81c2.13-.65,4.26-1.3,6.39-1.96"/>
  <path class="cls-1" d="M1309.18,82.19c2.11-.62,4.23-1.23,6.34-1.84"/>
  <path class="cls-1" d="M1297.34,85.83c2.27-.7,4.54-1.42,6.8-2.16"/>
  <path class="cls-1" d="M1284.59,89.41c2.38-.63,4.77-1.26,7.15-1.88"/>
  <path class="cls-1" d="M1272.89,92.68c2.18-.64,4.36-1.29,6.54-1.93"/>
  <path class="cls-1" d="M1260.42,96.21c2.49-.56,4.95-1.24,7.37-2.05"/>
  <path class="cls-1" d="M1247.31,97.96c2.49-.24,4.98-.46,7.47-.65"/>
  <path class="cls-1" d="M1235.03,99.43c2.29-.31,4.58-.62,6.87-.91"/>
  <path class="cls-1" d="M1223.38,101.13c2.29-.35,4.57-.69,6.86-1.04"/>
  <path class="cls-1" d="M1210.32,103.2c2.52-.4,5.05-.81,7.56-1.24"/>
  <path class="cls-1" d="M1197.78,105.15c2.35-.35,4.7-.72,7.05-1.1"/>
  <path class="cls-1" d="M1185.9,106.89c2.25-.31,4.5-.65,6.74-1.01"/>
  <path class="cls-1" d="M1173.97,108.21c2.18-.19,4.36-.41,6.54-.64"/>
  <path class="cls-1" d="M1161.59,109.08c2.38-.13,4.77-.28,7.15-.45"/>
  <path class="cls-1" d="M1149.83,109.13c2.19.04,4.38.1,6.56.2"/>
  <path class="cls-1" d="M1137.05,109.38c2.49-.07,4.98-.17,7.46-.3"/>
  <path class="cls-1" d="M1124.9,109.6c2.25,0,4.49-.04,6.74-.1"/>
  <path class="cls-1" d="M1112.74,109.51c2.26.05,4.53.07,6.79.06"/>
  <path class="cls-1" d="M1100.83,108.85c2.16.18,4.33.35,6.5.5"/>
  <path class="cls-1" d="M1089.43,107.8c2.07.21,4.14.41,6.21.6"/>
  <path class="cls-1" d="M1076.88,106.35c2.35.3,4.71.58,7.06.86"/>
  <path class="cls-1" d="M1064.33,104.78c2.47.32,4.94.62,7.42.89"/>
  <path class="cls-1" d="M1052.46,103.17c2.16.33,4.33.62,6.51.88"/>
  <path class="cls-1" d="M1040.69,101.14c2.2.41,4.41.81,6.62,1.18"/>
  <path class="cls-1" d="M1028.99,99.21c2.16.35,4.33.66,6.51.93"/>
  <path class="cls-1" d="M1017.45,96.76c2.13.53,4.26,1.04,6.39,1.53"/>
  <path class="cls-1" d="M1005.92,93.46c2.14.68,4.29,1.34,6.44,2"/>
  <path class="cls-1" d="M993.18,89.26c2.31.79,4.63,1.57,6.95,2.35"/>
  <path class="cls-1" d="M981.63,85.25c1.95.69,3.91,1.37,5.87,2.05"/>
  <path class="cls-1" d="M969.25,80.85c2.17.78,4.35,1.56,6.52,2.33"/>
  <path class="cls-1" d="M956.84,76.36c2.18.79,4.36,1.59,6.54,2.37"/>
  <path class="cls-1" d="M944.51,71.83c2.37.88,4.73,1.75,7.1,2.62"/>
  <path class="cls-1" d="M933.58,67.76c1.92.72,3.84,1.44,5.76,2.16"/>
  <path class="cls-1" d="M921.45,63.17c2.12.8,4.25,1.61,6.37,2.41"/>
  <path class="cls-1" d="M908.76,58.4c2.53.94,5.06,1.89,7.59,2.84"/>
  <path class="cls-1" d="M896.07,53.79c2.54.9,5.08,1.81,7.62,2.74"/>
  <path class="cls-1" d="M884.21,49.78c2.26.73,4.51,1.48,6.76,2.24"/>
  <path class="cls-1" d="M871.45,45.8c2.4.71,4.8,1.46,7.18,2.23"/>
  <path class="cls-1" d="M859.39,42.24c2.29.65,4.56,1.33,6.83,2.05"/>
  <path class="cls-1" d="M846.33,38.85c2.49.58,4.98,1.2,7.45,1.86"/>
  <path class="cls-1" d="M834.08,36.26c2.22.42,4.43.87,6.64,1.36"/>
  <path class="cls-1" d="M821.25,34.23c2.5.33,5,.69,7.49,1.1"/>
  <path class="cls-1" d="M808.6,32.87c2.55.21,5.09.47,7.63.75"/>
  <path class="cls-1" d="M796.25,32.07c2.21.1,4.42.22,6.62.39"/>
  <path class="cls-1" d="M782.93,31.73c2.46,0,4.91.06,7.36.16"/>
  <path class="cls-1" d="M769.73,32.13c2.62-.15,5.24-.27,7.86-.35"/>
  <path class="cls-1" d="M756.4,33.24c2.69-.29,5.39-.55,8.09-.76"/>
  <path class="cls-1" d="M743.87,34.72c2.38-.33,4.76-.61,7.15-.84"/>
  <path class="cls-1" d="M730.68,36.98c2.65-.54,5.3-1.03,7.96-1.47"/>
  <path class="cls-1" d="M718.2,40.42c2.44-.63,4.87-1.36,7.21-2.32"/>
  <path class="cls-1" d="M706.07,43.11c2.47-.53,4.94-1.02,7.41-1.56"/>
  <path class="cls-1" d="M694.88,46.08c2.13-.74,4.3-1.36,6.48-1.9"/>
  <path class="cls-1" d="M685.65,48.92c1.92-.66,3.88-1.21,5.86-1.66"/>
  <path class="cls-1" d="M1617.6,14.73c2.29.65,4.56,1.33,6.83,2.05"/>
  <path class="cls-1" d="M1604.53,11.34c2.49.58,4.98,1.2,7.45,1.86"/>
  <path class="cls-1" d="M1592.28,8.75c2.22.42,4.43.87,6.64,1.36"/>
  <path class="cls-1" d="M1579.45,6.72c2.5.33,5,.69,7.49,1.1"/>
  <path class="cls-1" d="M1566.81,5.36c2.55.21,5.09.47,7.63.75"/>
  <path class="cls-1" d="M1554.45,4.56c2.21.1,4.42.22,6.62.39"/>
  <path class="cls-1" d="M1541.14,4.22c2.46,0,4.91.06,7.36.16"/>
  <path class="cls-1" d="M1527.94,4.62c2.62-.15,5.24-.27,7.86-.35"/>
  <path class="cls-1" d="M1514.61,5.74c2.69-.29,5.39-.55,8.09-.76"/>
  <path class="cls-1" d="M1502.07,7.21c2.38-.33,4.76-.61,7.15-.84"/>
  <path class="cls-1" d="M1488.89,9.47c2.65-.54,5.3-1.03,7.96-1.47"/>
  <path class="cls-1" d="M1476.4,12.91c2.44-.63,4.87-1.36,7.21-2.32"/>
  <path class="cls-1" d="M1465.49,15.6c2.47-.53,4.94-1.02,7.41-1.56"/>
  <path class="cls-1" d="M1455.98,19.85c2.01-1.02,4.08-1.92,6.17-2.75"/>
  <path class="cls-1" d="M1446.65,24.33c1.78-.98,3.62-1.85,5.49-2.64"/>
</svg>